<svg width="675" height="355" viewBox="0 0 675 355" fill="none" xmlns="http://www.w3.org/2000/svg">
<path d="M89.866 330.308H161.085V335.823H89.866V330.308Z" fill="white" stroke="#262626" stroke-width="0.787818" stroke-miterlimit="10"/>
<path d="M133.039 302.892C133.039 302.892 123.9 310.928 112.083 307.304C100.265 303.68 63.7107 291.862 63.7107 291.862L75.0553 281.778C75.0553 281.778 113.658 281.778 132.093 279.888L141.547 288.711L133.039 302.892Z" fill="white" stroke="#262626" stroke-width="0.787818" stroke-miterlimit="10"/>
<path d="M86.0845 195.906C86.0845 195.906 76.3156 210.244 91.2841 229.94C106.253 249.635 128.312 276.421 128.312 276.421C128.312 276.421 139.341 293.753 133.038 302.734L176.684 261.295L86.0845 195.906Z" fill="white" stroke="#262626" stroke-width="0.787818" stroke-miterlimit="10"/>
<path d="M245.854 185.822L336.295 288.396C336.295 288.396 364.657 321.484 353.627 340.392C342.598 359.3 317.703 354.888 301.001 347.64C284.299 340.392 86.0845 196.064 86.0845 196.064L249.163 56.4624L326.842 114.918L245.854 185.822Z" fill="white" stroke="#262626" stroke-width="0.787818" stroke-miterlimit="10"/>
<path d="M199.688 148.322L164.709 127.524L113.659 172.429L146.905 198.27L199.688 148.322Z" fill="#FF6B00" stroke="#262626" stroke-width="0.787818" stroke-miterlimit="10"/>
<path d="M221.117 148.322L134.142 89.0781L81.3583 135.559L168.333 198.27L221.117 148.322Z" fill="white" stroke="#262626" stroke-width="0.787818" stroke-miterlimit="10"/>
<path d="M155.728 120.748L136.505 136.977L188.186 179.204L222.062 147.219L155.728 120.748Z" fill="#262626"/>
<path d="M319.436 329.363L172.429 211.032L205.518 178.102L319.436 329.363Z" fill="#262626"/>
<path d="M372.062 279.257L190.234 67.3344L137.292 113.816L319.436 329.363L372.062 279.257Z" fill="white" stroke="#262626" stroke-width="0.787818" stroke-miterlimit="10"/>
<path d="M249.163 118.7L363.396 25.8951C365.76 50.3174 376.159 75.0549 376.159 75.0549L487.399 179.992L449.111 213.238L451.632 215.287C469.909 233.564 451.632 255.623 451.632 255.623L349.058 345.749C361.978 327.944 346.38 302.734 346.38 302.734L245.539 185.665C215.917 149.898 249.163 118.7 249.163 118.7Z" fill="white" stroke="#262626" stroke-width="0.787818" stroke-miterlimit="10"/>
<path d="M436.033 269.488C436.033 269.488 445.487 250.423 430.204 232.303C415.077 214.183 277.209 104.992 277.209 104.992L295.802 86.557L451.947 215.444C451.947 215.444 467.231 230.57 455.886 249.478L451.947 255.78L436.033 269.488Z" fill="#FF6B00" stroke="#262626" stroke-width="0.787818" stroke-miterlimit="10"/>
<path d="M596.59 228.207C596.59 228.207 621.328 258.932 606.675 286.033C592.021 313.134 555.151 300.056 551.055 296.589C546.8 293.281 340.55 124.057 340.55 124.057C340.55 124.057 326.054 109.719 299.268 106.725C268.386 103.259 249.163 118.858 249.163 118.858L363.396 26.0527C363.396 26.0527 398.533 6.67234 441.705 33.9308C484.878 61.1893 611.244 162.188 611.244 162.188L582.095 203.784C582.095 203.784 588.555 214.971 596.59 228.207Z" fill="white" stroke="#262626" stroke-width="0.787818" stroke-miterlimit="10"/>
<mask id="mask0_11_2" style="mask-type:alpha" maskUnits="userSpaceOnUse" x="248" y="18" width="364" height="285">
<path d="M596.545 227.834C596.545 227.834 621.283 258.559 606.629 285.66C591.976 312.761 555.106 299.684 551.009 296.217C546.755 292.908 340.504 123.685 340.504 123.685C340.504 123.685 326.008 109.347 299.223 106.353C268.34 102.887 249.117 118.485 249.117 118.485L363.351 25.6804C363.351 25.6804 398.488 6.30009 441.66 33.5586C484.832 60.8171 611.198 161.815 611.198 161.815L582.049 203.412C582.049 203.412 588.509 214.599 596.545 227.834Z" fill="white" stroke="#262626" stroke-width="0.787818" stroke-miterlimit="10"/>
</mask>
<g mask="url(#mask0_11_2)">
<g clip-path="url(#clip0_11_2)">
<path d="M454.706 97.0537L413.931 100.633L406.788 142.686L364.525 147.159L371.668 104.51L327.917 108.387L335.06 64.2464L378.811 61.2639L421.372 58.2815L428.515 15.632L469.29 13.5442L476.73 -28.807L516.017 -30L508.576 11.4565L501.433 52.6147L462.147 55.299L454.706 97.0537Z" fill="#666666"/>
<path d="M447.564 138.212L440.719 179.37L399.944 184.44L406.789 142.686L447.564 138.212Z" fill="#262626"/>
<path d="M494.291 93.4748L487.148 134.037L447.564 138.212L454.707 97.0538L494.291 93.4748Z" fill="#262626"/>
<path d="M524.946 130.159L517.803 169.826L480.004 174.598L487.147 134.036L524.946 130.159Z" fill="#262626"/>
<path d="M532.089 90.194L494.291 93.4748L501.434 52.6148L539.53 49.9305L576.138 47.2463L568.995 86.9133L561.554 126.282L524.946 130.159L532.089 90.194Z" fill="#FF6B00"/>
<path d="M320.775 151.931L364.526 147.159L357.68 189.809L399.943 184.441L392.8 225.897L350.537 231.862L306.786 238.125L313.929 195.177L268.393 200.844L221.07 206.809L227.915 161.774L275.238 156.703L282.381 112.264L327.918 108.387L320.775 151.931Z" fill="#FF6B00"/>
<path d="M234.761 116.44L241.904 70.8079L289.226 67.5272L282.381 112.264L234.761 116.44Z" fill="#262626"/>
<path d="M254.702 287.933L261.547 244.687L306.786 238.125L299.941 280.775L254.702 287.933Z" fill="#262626"/>
<path d="M440.718 179.37L480.004 174.598L472.861 214.564L465.718 254.231L426.432 260.494L385.954 267.055L392.8 225.897L433.575 220.23L440.718 179.37Z" fill="#262626"/>
<path d="M547.565 203.827L510.66 209.195L517.803 169.826L554.411 165.054L547.565 203.827Z" fill="#262626"/>
<path d="M597.269 122.405L590.126 160.879L554.411 165.054L561.554 126.282L597.269 122.405Z" fill="#262626"/>
<path d="M289.226 67.5272L296.369 22.4917L342.203 20.1057L335.06 64.2465L289.226 67.5272Z" fill="#262626"/>
</g>
</g>
<path d="M582.883 222.219L556.097 249.478L601.002 293.123C601.002 292.965 625.425 263.186 582.883 222.219Z" fill="#262626"/>
<path d="M569.017 211.347L638.345 129.099C638.345 129.099 664.973 157.618 670.961 174.95C678.996 198.27 667.809 212.293 667.809 212.293L601.002 292.965C601.002 292.965 612.505 284.299 599.742 250.738C587.61 218.753 569.017 211.347 569.017 211.347Z" fill="white" stroke="#262626" stroke-width="0.787818" stroke-miterlimit="10"/>
<path d="M348.743 101.053C348.743 101.053 310.14 79.4667 280.991 93.1747L342.283 43.0695L389.395 52.6809L348.743 101.053Z" fill="#262626"/>
<path d="M450.528 73.952L356.148 1.47272L293.752 56.4624L388.291 133.038L450.528 73.952Z" fill="white" stroke="#262626" stroke-width="0.787818" stroke-miterlimit="10"/>
<path d="M89.8667 281.778L108.144 335.823H21.3265L1.47347 281.778H89.8667Z" fill="white" stroke="#262626" stroke-width="0.787818" stroke-miterlimit="10"/>
<path d="M155.255 281.778C155.255 281.778 158.564 277.997 149.74 261.138C140.917 244.121 116.494 221.431 116.494 221.431C116.494 221.431 106.568 211.505 104.835 209.772L176.684 261.61L155.255 281.778Z" fill="#262626"/>
<circle cx="12" cy="12" r="11.625" transform="matrix(-1 0 0 1 66.2695 298)" fill="white" stroke="#262626" stroke-width="0.75"/>
<defs>
<clipPath id="clip0_11_2">
<rect width="376.199" height="317.933" fill="white" transform="matrix(1 0 0 -1 221.07 287.933)"/>
</clipPath>
</defs>
</svg>
