<svg width="1171" height="1009" viewBox="0 0 1171 1009" fill="none" xmlns="http://www.w3.org/2000/svg">
<path d="M765.504 215.196L820.438 304.616C820.438 304.616 787.331 320.641 740.498 356.36C700.708 386.84 650.325 444.362 650.325 444.362L556.999 283.674C556.999 283.674 598.682 234.316 660.618 192.767C717.888 154.155 729.804 156.605 729.804 156.605L765.504 215.196Z" fill="white" stroke="#262626" stroke-width="1.22338" stroke-miterlimit="10"/>
<path d="M576.834 262.287L659.116 406.86C659.116 406.86 686.606 376.503 716.962 350.556C769.344 306.177 809.62 287.343 809.62 287.343L729.478 156.421C729.803 156.605 656.587 175.256 576.834 262.287Z" fill="#262626"/>
<path d="M988.605 239.922C988.605 239.922 944.759 206.327 853.903 239.455C763.047 272.583 664.377 361.57 664.377 361.57L573.099 203.328C573.099 203.328 697.651 98.9481 781.371 82.5911C849.212 69.2656 884.727 87.6377 884.727 87.6377L988.605 239.922Z" fill="white" stroke="#262626" stroke-width="1.22338" stroke-miterlimit="10"/>
<path d="M968.055 169.736L858.586 401.702L552.478 363.275" stroke="#FF6B00" stroke-width="1.22338" stroke-miterlimit="10"/>
<path d="M551.458 490.12L718.935 443.699L741.993 526.887L574.517 573.309L551.458 490.12Z" fill="white" stroke="#FF6B00" stroke-width="1.22338" stroke-miterlimit="10"/>
<path d="M466.642 832.776L447.553 838.067C442.564 835.889 437.391 834.036 432.331 831.603C431.681 831.235 431.102 831.122 430.452 830.754L424.387 808.876L457.475 799.704L466.642 832.776Z" fill="white" stroke="#FF6B00" stroke-width="1.22338" stroke-miterlimit="10"/>
<path d="M508.897 856.677L541.985 847.505L532.818 814.433L499.73 823.605L490.563 790.533L523.651 781.362L514.484 748.29L481.396 757.461L448.308 766.633L439.141 733.561L472.229 724.389L463.062 691.317L429.974 700.489L439.141 733.561L406.053 742.732L372.964 751.904L363.797 718.832L330.709 728.003L297.621 737.175L306.788 770.247L315.955 803.318L282.867 812.49L273.7 779.418L258.938 783.51L243.495 560.69C243.495 560.69 265.416 528.041 324.315 525.96C412.535 522.875 455.835 570.319 528.844 586.517C574.728 596.81 584.906 576.182 584.906 576.182L614.678 767.636C614.678 767.636 691.47 751.008 735.318 802.409C761.339 833.001 722.227 864.936 681.757 876.153C639.506 887.864 589.535 880.622 509.531 858.966L508.897 856.677V856.677Z" fill="white" stroke="#FF6B00" stroke-width="1.22338" stroke-miterlimit="10"/>
<path d="M508.898 856.677L504.825 857.805C493.531 854.635 482.097 850.956 470.521 846.768L466.643 832.776L499.731 823.605L508.898 856.677Z" fill="white" stroke="#FF6B00" stroke-width="1.22338" stroke-miterlimit="10"/>
<path d="M424.387 808.876L392.063 817.836C391.808 817.906 391.483 817.722 391.229 817.793L382.132 784.975L415.22 775.804L424.387 808.876Z" fill="white" stroke="#FF6B00" stroke-width="1.22338" stroke-miterlimit="10"/>
<path d="M354.403 813.481C341.524 813.49 330.227 815.251 319.975 817.819L315.956 803.318L349.044 794.147L354.403 813.481Z" fill="white" stroke="#FF6B00" stroke-width="1.22338" stroke-miterlimit="10"/>
<path d="M266.583 852.617L264.038 853.322L261.488 818.416L282.868 812.49L288.228 831.824C277.323 838.956 269.966 847.022 266.583 852.617Z" fill="white" stroke="#FF6B00" stroke-width="1.22338" stroke-miterlimit="10"/>
<path d="M339.877 761.075L372.965 751.903L382.132 784.975L349.044 794.147L339.877 761.075Z" fill="white" stroke="#FF6B00" stroke-width="1.22338" stroke-miterlimit="10"/>
<path d="M556.212 589.341L586.677 820.872C586.677 820.872 642.137 781.666 716.309 793.158L674.994 570.935C674.994 570.935 639.767 543.717 585.231 576.366C585.231 576.366 573.982 590.168 556.212 589.341Z" fill="#262626"/>
<path d="M585.232 576.365L578.2 521.334C578.2 521.334 660.35 506.234 700.65 556.701L742.662 814.07C742.662 814.07 738.333 797.464 688.678 782.463C658.783 773.491 617.762 785.683 617.762 785.683L585.232 576.365Z" fill="white" stroke="#FF6B00" stroke-width="1.22338" stroke-miterlimit="10"/>
<path d="M382.939 530.804C382.939 530.804 350.928 514.2 310.401 528.173C269.873 542.146 172.065 632.264 172.065 632.264L168.992 807.071C168.992 807.071 288.367 705.77 327.689 697.336C365.16 689.141 397.099 705.491 397.099 705.491L382.939 530.804Z" fill="#262626"/>
<path d="M351.724 487.407C351.724 487.407 321.504 478.251 279.186 484.776C241.081 490.681 140.85 588.867 140.85 588.867L137.777 763.674C137.777 763.674 258.351 666.698 296.475 653.939C334.598 641.18 365.183 654.618 365.183 654.618L351.724 487.407Z" fill="white" stroke="#FF6B00" stroke-width="1.22338" stroke-miterlimit="10"/>
<path d="M251.257 497.722L251.826 575.913L175.653 637.296L176.09 555.814L231.71 510.263L251.257 497.722Z" fill="#262626"/>
<path d="M338.866 832.581L424.386 808.876L439.406 863.063L353.885 886.768L338.866 832.581Z" fill="white" stroke="#FF6B00" stroke-width="1.22338" stroke-miterlimit="10"/>
<path d="M417.499 840.671L417.122 839.314L404.656 836.778L405.258 838.949L414.757 840.664L414.651 840.547L414.745 840.886L414.775 840.731L407.515 847.092L408.116 849.263L417.499 840.671ZM392.843 834.499L404.205 853.745L406.037 853.237L394.675 833.991L392.843 834.499ZM384.501 856.393L385.45 854.742L378.582 850.855L392.509 846.995L391.992 845.129L378.065 848.989L381.956 842.138L380.288 841.194L374.795 850.9L384.501 856.393ZM359.528 856.739L371.995 859.275L371.393 857.104L361.894 855.389L361.999 855.506L361.905 855.167L361.875 855.321L369.136 848.961L368.534 846.79L359.152 855.382L359.528 856.739Z" fill="black"/>
<path d="M231.594 493.036L231.908 571.298L155.736 632.681L156.197 557.219L231.594 493.036Z" fill="white" stroke="#262626" stroke-width="1.22338" stroke-miterlimit="10"/>
<path d="M340.949 428.756L334.029 355.339L410.272 294.21L416.346 364.574L340.949 428.756Z" fill="white" stroke="#262626" stroke-width="1.22338" stroke-miterlimit="10"/>
<path d="M375.2 374.335C370.42 375.66 365.472 372.862 364.148 368.085C362.824 363.308 365.625 358.361 370.404 357.036C375.184 355.712 380.132 358.51 381.456 363.287C382.78 368.064 379.979 373.011 375.2 374.335Z" fill="white" stroke="#262626" stroke-width="1.22338" stroke-miterlimit="10"/>
<path d="M195.551 585.484L195.546 613.154L168.67 634.849L168.957 608.197L195.551 585.484Z" fill="white" stroke="#262626" stroke-width="1.22338" stroke-miterlimit="10"/>
<path d="M293.029 626.677L293.254 670.994L251.572 697.615L251.771 654.824L293.029 626.677Z" fill="white" stroke="#262626" stroke-width="1.22338" stroke-miterlimit="10"/>
<path d="M432.971 656.922C414.557 662.026 395.493 651.243 390.391 632.838C385.29 614.432 396.082 595.374 414.496 590.269C432.911 585.165 451.975 595.948 457.076 614.354C462.178 632.759 451.386 651.818 432.971 656.922Z" fill="#262626"/>
<path d="M424.203 642.094C405.788 647.198 386.725 636.415 381.623 618.01C376.521 599.604 387.313 580.546 405.728 575.441C424.142 570.337 443.206 581.12 448.308 599.526C453.41 617.931 442.617 636.99 424.203 642.094Z" fill="white" stroke="#262626" stroke-width="1.22338" stroke-miterlimit="10"/>
<path d="M414.964 608.768L547.818 374.155" stroke="#FF6B00" stroke-width="1.22338" stroke-miterlimit="10"/>
<path d="M561.715 396.601C543.301 401.705 524.237 390.922 519.135 372.517C514.034 354.111 524.826 335.053 543.24 329.948C561.655 324.844 580.719 335.627 585.821 354.033C590.922 372.438 580.13 391.497 561.715 396.601Z" fill="white" stroke="#FF6B00" stroke-width="1.22338" stroke-miterlimit="10"/>
<path d="M539.746 331.191L545.368 317.853L577.8 358.722L553.226 405.529L547.194 397.613" stroke="#FF6B00" stroke-width="1.22338" stroke-miterlimit="10"/>
<path d="M710.634 478.809L710.153 477.075L694.216 473.833L694.985 476.608L707.128 478.8L706.994 478.651L707.114 479.084L707.152 478.887L697.87 487.017L698.64 489.793L710.634 478.809ZM681.915 495.176L682.576 497.562L696.455 493.715L695.793 491.329L681.915 495.176ZM668.109 499.003L668.77 501.388L682.649 497.541L681.988 495.156L668.109 499.003ZM654.304 502.83L654.965 505.215L668.844 501.368L668.182 498.983L654.304 502.83ZM637.698 482.4L652.223 507.002L654.565 506.353L640.04 481.75L637.698 482.4ZM629.615 509.673L630.276 512.058L644.155 508.211L643.494 505.826L629.615 509.673ZM610.436 506.583L626.373 509.824L625.604 507.049L613.46 504.857L613.595 505.006L613.475 504.573L613.436 504.77L622.718 496.64L621.949 493.864L609.955 504.848L610.436 506.583Z" fill="black"/>
<path d="M860.799 410.677C855.036 412.275 849.069 408.9 847.473 403.139C845.876 397.379 849.254 391.414 855.017 389.816C860.78 388.219 866.747 391.594 868.344 397.354C869.94 403.115 866.563 409.08 860.799 410.677Z" fill="white" stroke="#F55800" stroke-width="1.22338" stroke-miterlimit="10"/>
<path d="M977.856 205.098C954.943 211.449 931.222 198.032 924.874 175.13C918.527 152.229 931.955 128.515 954.868 122.164C977.781 115.812 1001.5 129.229 1007.85 152.131C1014.2 175.033 1000.77 198.747 977.856 205.098Z" fill="white" stroke="#F55800" stroke-width="1.22338" stroke-miterlimit="10"/>
<path d="M417.393 613.574C414.019 614.509 410.527 612.534 409.592 609.162C408.657 605.79 410.634 602.298 414.008 601.363C417.382 600.428 420.874 602.403 421.809 605.775C422.744 609.147 420.767 612.639 417.393 613.574Z" fill="white" stroke="#FF6B00" stroke-width="1.22338" stroke-miterlimit="10"/>
<path d="M930.893 139.493C930.893 139.493 936.559 165.865 961.262 179.838C985.965 193.81 1003.44 185.678 1003.44 185.678" fill="white"/>
<path d="M930.893 139.493C930.893 139.493 936.559 165.865 961.262 179.838C985.965 193.81 1003.44 185.678 1003.44 185.678" stroke="#F55800" stroke-width="1.22338" stroke-miterlimit="10"/>
<path d="M660.841 259.822L694.864 247.103L690.775 209.61L725.86 195.776L730.09 233.778L766.588 220.1L770.916 259.444L734.206 272.359L698.514 284.992L702.489 323.064L668.113 334.51L671.763 372.399L638.448 382.729L635.01 345.604L631.387 308.803L664.35 297.201L660.841 259.822Z" fill="#666666"/>
<path d="M657.218 223.021L653.341 186.291L687.012 172.301L690.775 209.61L657.218 223.021Z" fill="#262626"/>
<path d="M627.834 272.258L624.353 235.966L657.217 223.021L660.84 259.822L627.834 272.258Z" fill="#262626"/>
<path d="M592.945 248.233L589.676 212.705L620.872 199.675L624.353 235.966L592.945 248.233Z" fill="#262626"/>
<path d="M596.287 284.016L627.835 272.258L631.387 308.803L599.443 320.123L568.771 331.091L565.501 295.562L562.302 260.288L592.946 248.233L596.287 284.016Z" fill="#FF6B00"/>
<path d="M762.401 181.265L725.86 195.777L721.885 157.704L687.012 172.302L683.319 135.247L718.051 120.141L753.985 104.428L758.03 142.754L795.633 127.127L834.692 110.821L839.485 150.858L800.215 166.4L804.613 205.999L766.588 220.1L762.401 181.265Z" fill="#F55800"/>
<path d="M844.35 191.15L849.03 231.766L809.336 245.782L804.613 205.999L844.35 191.15Z" fill="#262626"/>
<path d="M786.751 49.5965L791.122 88.1071L753.986 104.427L749.756 66.4256L786.751 49.5965Z" fill="#262626"/>
<path d="M653.341 186.292L620.872 199.675L617.532 163.892L614.262 128.364L646.124 113.779L679.442 98.517L683.319 135.247L649.789 149.746L653.341 186.292Z" fill="#262626"/>
<path d="M556.185 190.758L586.476 177.431L589.676 212.705L559.243 225.523L556.185 190.758Z" fill="#262626"/>
<path d="M532.929 271.991L529.941 237.48L559.242 225.523L562.301 260.288L532.929 271.991Z" fill="#262626"/>
<path d="M809.337 245.782L813.876 285.889L775.243 298.789L770.916 259.445L809.337 245.782Z" fill="#262626"/>
<path d="M372.8 365.686L935.758 531.803" stroke="#FF6B00" stroke-width="1.22338" stroke-miterlimit="10"/>
</svg>
